<svg width="30" height="23" viewBox="0 0 30 23" fill="none" xmlns="http://www.w3.org/2000/svg">
<path d="M7.22593 11.9308H5.65381V10.0615H7.22593V8.50383H9.11247V10.0615H10.6846V11.9308H9.11247V13.4884H7.22593V11.9308ZM8.1692 5.0769L3.13843 6.94614V10.7407C3.13843 13.8872 5.28279 16.8219 8.1692 17.5384C11.0556 16.8219 13.2 13.8872 13.2 10.7407V6.94614L8.1692 5.0769ZM11.9423 10.7407C11.9423 13.233 10.3387 15.5384 8.1692 16.2424C5.99968 15.5384 4.39612 13.2392 4.39612 10.7407V7.81221L8.1692 6.41029L11.9423 7.81221V10.7407V10.7407Z" fill="#4CAF50"/>
<path d="M17.962 12.3968C17.162 12.1301 16.582 11.8068 16.222 11.4268C15.8687 11.0468 15.692 10.5868 15.692 10.0468C15.692 9.44014 15.8954 8.96014 16.302 8.60681C16.7087 8.25347 17.2787 8.07681 18.012 8.07681C18.632 8.07681 19.172 8.14681 19.632 8.28681C19.792 8.33347 19.9187 8.43014 20.012 8.57681C20.112 8.71681 20.162 8.87347 20.162 9.04681V9.13681C20.162 9.26347 20.1054 9.36347 19.992 9.43681C19.8787 9.50347 19.762 9.51347 19.642 9.46681C19.142 9.27347 18.632 9.17681 18.112 9.17681C17.7787 9.17681 17.5254 9.25347 17.352 9.40681C17.1787 9.56014 17.092 9.77347 17.092 10.0468C17.092 10.5268 17.4054 10.8701 18.032 11.0768C18.932 11.3635 19.5554 11.6901 19.902 12.0568C20.2554 12.4235 20.432 12.8968 20.432 13.4768C20.432 14.8768 19.5687 15.5768 17.842 15.5768C17.302 15.5768 16.812 15.4935 16.372 15.3268C16.212 15.2668 16.0854 15.1635 15.992 15.0168C15.9054 14.8701 15.862 14.7068 15.862 14.5268V14.4068C15.862 14.2801 15.9154 14.1901 16.022 14.1368C16.1287 14.0768 16.2387 14.0735 16.352 14.1268C16.792 14.3468 17.2554 14.4568 17.742 14.4568C18.5887 14.4568 19.012 14.1368 19.012 13.4968C19.012 13.2368 18.932 13.0235 18.772 12.8568C18.612 12.6835 18.342 12.5301 17.962 12.3968ZM22.1723 15.4768C22.019 15.4768 21.8857 15.4201 21.7723 15.3068C21.6657 15.1935 21.6123 15.0601 21.6123 14.9068V8.74681C21.6123 8.59347 21.6657 8.46014 21.7723 8.34681C21.8857 8.23347 22.019 8.17681 22.1723 8.17681H22.4423C22.5957 8.17681 22.729 8.23347 22.8423 8.34681C22.9557 8.46014 23.0123 8.59347 23.0123 8.74681V11.0168C23.0123 11.0701 23.039 11.0968 23.0923 11.0968H25.5923C25.6457 11.0968 25.6723 11.0701 25.6723 11.0168V8.74681C25.6723 8.59347 25.729 8.46014 25.8423 8.34681C25.9557 8.23347 26.089 8.17681 26.2423 8.17681H26.5123C26.6657 8.17681 26.7957 8.23347 26.9023 8.34681C27.0157 8.46014 27.0723 8.59347 27.0723 8.74681V14.9068C27.0723 15.0601 27.0157 15.1935 26.9023 15.3068C26.7957 15.4201 26.6657 15.4768 26.5123 15.4768H26.2423C26.089 15.4768 25.9557 15.4201 25.8423 15.3068C25.729 15.1935 25.6723 15.0601 25.6723 14.9068V12.2568C25.6723 12.1968 25.6457 12.1668 25.5923 12.1668H23.0923C23.039 12.1668 23.0123 12.1968 23.0123 12.2568V14.9068C23.0123 15.0601 22.9557 15.1935 22.8423 15.3068C22.729 15.4201 22.5957 15.4768 22.4423 15.4768H22.1723Z" fill="#4CAF50"/>
</svg>
